# xmcd
#
# Track frame offsets:
#	180
#	18453
#	41926
#	64058
#	90079
#	105498
#	123919
#	137583
#	158704
#	172880
#	189237
#
# Disc length: 2756 seconds
#
# Revision: 1
# Processed by: cddbd v1.5.1PL0 Copyright (c) Steve Scherf et al.
# Submitted via: audiograbber 1.83.01
#
DISCID=7f0ac20b
DTITLE=Speedo Harmonica Jones - Have Blues Will Travel
DYEAR=1900
DGENRE=Blues
TTITLE0=Stop That Funking Around
TTITLE1=Little Sister
TTITLE2=Brake Your Broom
TTITLE3=Blues For Vic
TTITLE4=Uncanny Miss Frannie
TTITLE5=Caladonia
TTITLE6=The Speedster
TTITLE7=Foxy Dame
TTITLE8=Sea Cruise
TTITLE9=I Smell A Rat
TTITLE10=Nightmare With No End
EXTD=
EXTT0=
EXTT1=
EXTT2=
EXTT3=
EXTT4=
EXTT5=
EXTT6=
EXTT7=
EXTT8=
EXTT9=
EXTT10=
PLAYORDER=
